<?xml version="1.0" encoding="UTF-8"?>
<svg width="24" height="24" viewBox="0 0 24 24" fill="none" xmlns="http://www.w3.org/2000/svg">
    <path d="M12 2C6.48 2 2 6.48 2 12s4.48 10 10 10 10-4.48 10-10S17.52 2 12 2zm0 18c-4.41 0-8-3.59-8-8s3.59-8 8-8 8 3.59 8 8-3.59 8-8 8zm4-10.42c.04-.35.06-.7.06-1.06 0-1.66-1.34-3-3-3s-3 1.34-3 3c0 .36.03.71.08 1.04-1.23.9-2.7 1.47-4.4 1.47-1.65 0-3.14-.9-4-2.25.06.01.13.02.19.02.57 0 1.1.25 1.48.67-.53-.01-1.04-.16-1.48-.4v-.02c2.22.5 4.61.78 7.1 0.78 8.84 0 14-7.16 14-14s-7.16-14-14-14C6.48 2 2 6.48 2 12s4.48 10 10 10z" fill="#1DA1F2"/>
</svg>
